# xmcd
#
# Track frame offsets: 
#        150
#        9100
#        32987
#        44757
#        58157
#        83102
#        106165
#        122315
#        143992
#        165700
#        169607
#        190460
#        212957
#        230442
#        233835
#        257187
#        271257
#        288497
#        309037
#
# Disc length: 4179 seconds
#
# Revision: 4
# Processed by: cddbd v1.5.2PL0 Copyright (c) Steve Scherf et al.
# Submitted via: ExactAudioCopyFreeDBPlugin 1.0
#
DISCID=08105113
DTITLE=Various Artist - Until The End Of The World
DYEAR=1991
DGENRE=Soundtrack
TTITLE0=Graeme Revell - Opening Titles (solo David Darling)
TTITLE1=Talking Heads - Sax And Violins
TTITLE2=Julee Cruise - Summer Kisses, Winter Tears
TTITLE3=Neneh Cherry - Move With Me (Dub)
TTITLE4=Crime And The City Solution - The Adversary
TTITLE5=Lou Reed - What's Good
TTITLE6=Can - Last Night Sleep
TTITLE7=R.E.M. - Fretlesss
TTITLE8=Elvis Costello - Days
TTITLE9=Graeme Revell - Claire's Theme (solo David Darling)
TTITLE10=Nick Cave And The Bad Seeds - (I'll Love You) Till The End Of
TTITLE10=The World
TTITLE11=Patti And Fred Smith - It Takes Time
TTITLE12=Depeche Mode - Death's Door
TTITLE13=Graeme Revell - Love Theme (solo David Darling)
TTITLE14=Jane Siberry with K. D. Lang - Calling All Angels
TTITLE15=T-Bone Burnett - Humans From Earth
TTITLE16=Daniel Lanois - Sleeping In The Devil's Bed
TTITLE17=U2 - Until The End Of The World
TTITLE18=Graeme Revell - Finale (solo David Darling)
EXTD=
EXTT0=
EXTT1=
EXTT2=
EXTT3=
EXTT4=
EXTT5=
EXTT6=
EXTT7=
EXTT8=
EXTT9=
EXTT10=
EXTT11=
EXTT12=
EXTT13=
EXTT14=
EXTT15=
EXTT16=
EXTT17=
EXTT18=
PLAYORDER=
